<?xml version="1.0" encoding="iso-8859-1"?>
<!-- Generator: Adobe Illustrator 16.0.0, SVG Export Plug-In . SVG Version: 6.00 Build 0)  -->
<!DOCTYPE svg PUBLIC "-//W3C//DTD SVG 1.1//EN" "http://www.w3.org/Graphics/SVG/1.1/DTD/svg11.dtd">
<svg version="1.1" id="Capa_1" xmlns="http://www.w3.org/2000/svg" xmlns:xlink="http://www.w3.org/1999/xlink" x="0px" y="0px"
	 width="612.001px" height="612.001px" viewBox="0 0 612.001 612.001" style="enable-background:new 0 0 612.001 612.001;"
	 xml:space="preserve">
<g>
	<g>
		<path d="M599.751,276.341L489.037,165.537c-7.924-7.924-18.451-12.288-29.65-12.288c-11.179,0-21.699,4.352-29.627,12.261
			c-16.334,16.33-16.342,42.932-0.008,59.296l81.083,81.165l-81.079,81.109c-7.928,7.932-12.287,18.475-12.279,29.688
			c0.007,11.191,4.37,21.707,12.283,29.594c7.92,7.92,18.444,12.279,29.639,12.279c11.202,0,21.729-4.359,29.639-12.279
			l110.714-110.752C616.085,319.269,616.085,292.679,599.751,276.341z M589.092,324.962L478.378,435.714
			c-5.068,5.072-11.809,7.865-18.979,7.865c-7.17,0-13.911-2.793-18.986-7.873c-5.068-5.053-7.856-11.777-7.864-18.945
			c-0.008-7.178,2.788-13.934,7.867-19.016l86.399-86.438c2.943-2.943,2.943-7.713,0.004-10.652l-86.399-86.49
			c-10.463-10.486-10.467-27.532-0.011-37.984c5.079-5.064,11.82-7.853,18.979-7.853c7.17,0,13.915,2.796,18.99,7.871
			l110.714,110.805C599.552,297.465,599.552,314.492,589.092,324.962z"/>
		<path d="M194.525,416.773c0.007-11.209-4.348-21.748-12.28-29.688l-81.075-81.109l81.09-81.173
			c16.323-16.364,16.312-42.962-0.034-59.304c-7.92-7.897-18.437-12.246-29.612-12.246c-11.198,0-21.73,4.363-29.654,12.288
			L12.25,276.334c-16.334,16.345-16.334,42.939,0.004,59.281l110.703,110.74c7.917,7.928,18.448,12.291,29.646,12.291
			s21.722-4.355,29.62-12.264C190.147,438.484,194.518,427.968,194.525,416.773z M171.571,435.718
			c-5.06,5.068-11.797,7.857-18.968,7.857s-13.915-2.793-18.987-7.871L22.914,324.962c-10.464-10.467-10.464-27.501,0-37.969
			L133.62,176.196c5.079-5.075,11.824-7.871,18.994-7.871c7.159,0,13.896,2.785,18.964,7.837
			c10.467,10.463,10.471,27.51,0.015,37.992l-86.407,86.494c-2.939,2.939-2.939,7.708,0.004,10.652l86.399,86.434
			c5.079,5.086,7.875,11.842,7.867,19.021C179.446,423.925,176.654,430.654,171.571,435.718z"/>
		<path d="M410.932,23.764c-4.726-1.76-9.657-2.653-14.665-2.653c-17.435,0-33.203,10.987-39.244,27.333l-180.595,485.89
			c-3.918,10.502-3.508,21.9,1.165,32.104c4.668,10.191,13.014,17.939,23.482,21.801c4.725,1.76,9.653,2.652,14.646,2.652
			c17.416,0,33.207-10.982,39.304-27.336L435.642,77.608C443.652,55.919,432.56,31.763,410.932,23.764z M421.504,72.37
			L240.897,558.294c-3.907,10.479-14.024,17.521-25.177,17.521c-3.191,0-6.349-0.574-9.401-1.711
			c-6.699-2.477-12.035-7.432-15.022-13.949c-2.992-6.529-3.256-13.828-0.739-20.562L371.156,53.681
			c3.866-10.467,13.957-17.499,25.11-17.499c3.206,0,6.363,0.573,9.416,1.711C419.537,43.014,426.636,58.489,421.504,72.37z"/>
	</g>
</g>
<g>
</g>
<g>
</g>
<g>
</g>
<g>
</g>
<g>
</g>
<g>
</g>
<g>
</g>
<g>
</g>
<g>
</g>
<g>
</g>
<g>
</g>
<g>
</g>
<g>
</g>
<g>
</g>
<g>
</g>
</svg>
